<svg width="314" height="116" viewBox="93 192 314 116" fill="none" xmlns="http://www.w3.org/2000/svg">
<path d="M329.218 299.393L315.275 250.666H326.529L334.595 284.523H334.999L343.898 250.666H353.534L362.408 284.594H362.837L370.902 250.666H382.156L368.214 299.393H358.173L348.894 267.535H348.513L339.258 299.393H329.218Z" fill="#008CFF"/>
<path d="M317.14 275.03C317.14 280.344 316.133 284.864 314.118 288.592C312.12 292.319 309.391 295.166 305.934 297.133C302.492 299.084 298.621 300.06 294.323 300.06C289.992 300.06 286.106 299.076 282.664 297.109C279.222 295.143 276.502 292.295 274.503 288.568C272.505 284.84 271.506 280.328 271.506 275.03C271.506 269.716 272.505 265.196 274.503 261.468C276.502 257.741 279.222 254.901 282.664 252.95C286.106 250.983 289.992 250 294.323 250C298.621 250 302.492 250.983 305.934 252.95C309.391 254.901 312.12 257.741 314.118 261.468C316.133 265.196 317.14 269.716 317.14 275.03ZM306.695 275.03C306.695 271.588 306.179 268.685 305.148 266.322C304.133 263.958 302.698 262.166 300.842 260.945C298.986 259.723 296.813 259.113 294.323 259.113C291.832 259.113 289.659 259.723 287.804 260.945C285.948 262.166 284.504 263.958 283.473 266.322C282.458 268.685 281.951 271.588 281.951 275.03C281.951 278.472 282.458 281.375 283.473 283.738C284.504 286.101 285.948 287.894 287.804 289.115C289.659 290.336 291.832 290.947 294.323 290.947C296.813 290.947 298.986 290.336 300.842 289.115C302.698 287.894 304.133 286.101 305.148 283.738C306.179 281.375 306.695 278.472 306.695 275.03Z" fill="#008CFF"/>
<path d="M215.004 264.68C214.814 262.761 213.997 261.27 212.553 260.207C211.11 259.144 209.151 258.613 206.676 258.613C204.995 258.613 203.576 258.851 202.418 259.327C201.26 259.787 200.371 260.429 199.753 261.254C199.15 262.079 198.849 263.015 198.849 264.061C198.817 264.934 198.999 265.695 199.396 266.346C199.808 266.996 200.371 267.559 201.085 268.035C201.799 268.495 202.624 268.899 203.56 269.248C204.496 269.581 205.495 269.867 206.558 270.105L210.935 271.152C213.061 271.627 215.012 272.262 216.788 273.055C218.565 273.848 220.103 274.824 221.404 275.982C222.705 277.139 223.712 278.504 224.426 280.074C225.155 281.644 225.528 283.444 225.544 285.475C225.528 288.457 224.767 291.042 223.26 293.231C221.769 295.404 219.612 297.094 216.788 298.299C213.981 299.489 210.594 300.083 206.629 300.083C202.695 300.083 199.269 299.481 196.35 298.275C193.448 297.07 191.18 295.285 189.546 292.922C187.928 290.543 187.079 288.505 187 285H196.969C197.08 286.634 197.548 287.093 198.373 288.187C199.214 289.266 200.332 290.083 201.728 290.638C203.139 291.177 204.733 291.447 206.51 291.447C208.255 291.447 209.77 291.193 211.054 290.685C212.355 290.178 213.362 289.472 214.076 288.568C214.79 287.664 215.147 286.625 215.147 285.451C215.147 284.357 214.821 283.437 214.171 282.691C213.537 281.946 212.601 281.311 211.364 280.788C210.142 280.264 208.643 279.788 206.867 279.36L201.561 278.028C197.453 277.028 194.209 275.466 191.83 273.341C189.451 271.215 188.269 268.352 188.285 264.751C188.269 261.801 189.054 259.224 190.64 257.019C192.242 254.814 194.439 253.093 197.231 251.856C200.022 250.619 203.195 250 206.748 250C210.364 250 213.521 250.619 216.217 251.856C218.93 253.093 221.039 254.814 222.546 257.019C224.053 259.224 224.83 261.777 224.878 264.68H215.004Z" fill="#008CFF"/>
<path d="M324.375 249V200H357.209V208.767H334.677V220.377H355.52V228.871H334.677V240.506H357.304V249H324.375Z" fill="#008CFF"/>
<path d="M297.593 249H280.32V200H298C302.901 200 306.857 200.975 310.394 202.926C313.931 204.862 316.651 207.918 318.555 211.55C320.474 215.183 321.433 219.529 321.433 224.589C321.433 229.665 320.474 234.026 318.555 237.675C316.651 241.323 313.915 244.122 310.346 246.073C306.793 248.024 302.542 249 297.593 249ZM290.622 240.173H297.165C300.21 240.173 302.772 239.634 304.85 238.555C306.944 237.461 308.514 235.771 309.561 233.487C310.624 231.187 311.155 228.221 311.155 224.589C311.155 220.988 310.624 218.046 309.561 215.762C308.514 213.478 306.952 211.796 304.874 210.718C302.796 209.639 300.234 209.1 297.189 209.1H290.622V240.173Z" fill="#008CFF"/>
<path d="M276 200V250H268L246 218V250H236V200H244L265.815 230.918H266V200H276Z" fill="#008CFF"/>
<path d="M258 282L236 250H246V218L268 250H258V282Z" fill="#FFBB00"/>
<path d="M221.653 200H231.955V230.917C231.955 234.47 231.106 237.579 229.409 240.244C227.728 242.908 225.372 244.986 222.343 246.477C219.313 247.952 215.784 248.69 211.755 248.69C207.71 248.69 204.173 247.952 201.144 246.477C198.114 244.986 195.759 242.908 194.077 240.244C192.396 237.579 191.555 234.47 191.555 230.917V200H201.857V230.037C201.857 231.892 202.262 233.542 203.071 234.985C203.896 236.429 205.054 237.563 206.545 238.388C208.036 239.213 209.772 239.625 211.755 239.625C213.754 239.625 215.491 239.213 216.966 238.388C218.457 237.563 219.607 236.429 220.416 234.985C221.24 233.542 221.653 231.892 221.653 230.037V200Z" fill="#008CFF"/>
<path d="M145 249V200L155.559 200V216.377H176.473V200H187V249H176.473V224.871H155.559V249L145 249Z" fill="#008CFF"/>
<path d="M101 209V200H141V209H126.438V249H116.255V209H101Z" fill="#008CFF"/>
<path d="M268 250V299.5H260L238.4 267.331H238.043V299.5H228V250H236L258 282V250H268Z" fill="#008CFF"/>
<path d="M379.934 200.272C383.613 200.272 386.754 200.931 389.355 202.247C391.973 203.548 393.963 205.396 395.327 207.791C396.707 210.17 397.397 212.97 397.397 216.19C397.397 219.426 396.699 222.209 395.304 224.541C393.908 226.857 391.885 228.634 389.236 229.871C389.091 229.939 388.944 230.004 388.796 230.068L399.135 249H390.526L387.669 245.195L377.646 231.727H377.554L371.335 223.446H378.007C379.974 223.446 381.608 223.177 382.908 222.638C384.209 222.098 385.176 221.289 385.811 220.211C386.461 219.132 386.786 217.792 386.786 216.19C386.786 214.573 386.461 213.208 385.811 212.098C385.176 210.987 384.2 210.146 382.884 209.575C381.583 208.988 379.942 208.695 377.959 208.695H371.012V223.015L371 223V249H360.709V200.272H379.934Z" fill="#008CFF"/>
</svg>
